<svg version="1.1" id="Layer_1" xmlns="http://www.w3.org/2000/svg" xmlns:xlink="http://www.w3.org/1999/xlink" x="0px" y="0px"
	 width="100%" viewBox="0 0 2000 1769" xml:space="preserve">
<path fill="#FEED33" opacity="1.000000" stroke="none" 
	d="
M285.265808,1149.319336 
	C301.991699,1120.302612 318.501953,1091.595337 335.005280,1062.884033 
	C349.336792,1037.951294 363.624084,1012.993103 377.997589,988.084595 
	C392.614380,962.754578 407.373352,937.506531 421.958344,912.158325 
	C436.702667,886.533081 451.250214,860.794678 465.994385,835.169373 
	C480.579346,809.820740 495.372955,784.592163 509.943939,759.235596 
	C523.385925,735.843750 536.618896,712.331848 550.007690,688.909241 
	C565.321289,662.119324 580.669434,635.348938 596.070129,608.609009 
	C608.653381,586.760742 621.334106,564.968689 633.974854,543.153625 
	C648.636047,517.851685 663.372742,492.593262 677.943237,467.239258 
	C691.708496,443.286591 705.225281,419.191223 718.989624,395.238037 
	C733.560242,369.881744 748.349304,344.651123 762.938843,319.305634 
	C775.027588,298.304657 786.894470,277.175964 798.988464,256.178009 
	C812.215393,233.212936 825.657288,210.371658 838.879761,187.404068 
	C849.922302,168.222977 860.736511,148.910599 871.736877,129.705063 
	C885.145020,106.295555 897.768799,82.374069 912.366577,59.727711 
	C924.905823,40.274822 942.622620,26.192625 964.782532,17.826220 
	C981.307434,11.587238 998.267883,9.722512 1015.467224,11.185304 
	C1036.900024,13.008150 1056.072876,21.268251 1073.144409,34.549572 
	C1087.678589,45.856781 1097.309082,60.795219 1106.217529,76.508621 
	C1119.927124,100.690659 1134.091187,124.614601 1147.955200,148.709702 
	C1160.041992,169.715973 1171.912720,190.846588 1184.002319,211.851242 
	C1198.592041,237.199677 1213.372437,262.438293 1227.958130,287.789001 
	C1242.702271,313.415436 1257.248657,339.155609 1271.993164,364.781891 
	C1286.578491,390.131653 1301.354004,415.371918 1315.951050,440.714905 
	C1329.337280,463.956207 1342.547119,487.299133 1355.925049,510.545227 
	C1371.883545,538.275574 1387.991333,565.920044 1403.934448,593.659180 
	C1416.332520,615.230652 1428.511719,636.927979 1440.908203,658.500488 
	C1454.109741,681.473999 1467.510864,704.332947 1480.714233,727.305542 
	C1490.373535,744.112000 1499.768188,761.070679 1509.437012,777.871582 
	C1520.076782,796.359558 1530.964233,814.704895 1541.613281,833.187500 
	C1549.919189,847.603210 1557.953003,862.175537 1566.239258,876.602661 
	C1575.897095,893.417542 1585.735229,910.128723 1595.425415,926.925110 
	C1603.662109,941.202026 1611.776001,955.549805 1619.988159,969.840942 
	C1628.437866,984.545532 1636.962524,999.207275 1645.414307,1013.910706 
	C1653.629150,1028.202026 1661.759521,1042.541992 1669.988892,1056.824951 
	C1679.427002,1073.205688 1688.962158,1089.530396 1698.401611,1105.910400 
	C1706.632568,1120.193481 1714.769775,1134.530640 1722.984253,1148.823242 
	C1731.436279,1163.529663 1739.949951,1178.200439 1748.402710,1192.906494 
	C1756.617188,1207.197998 1764.768433,1221.525635 1772.983765,1235.816528 
	C1781.437012,1250.521362 1789.963867,1265.183960 1798.403320,1279.896729 
	C1805.317017,1291.949341 1812.106323,1304.073364 1819.028687,1316.120850 
	C1827.400269,1330.691162 1835.875122,1345.202026 1844.265991,1359.761353 
	C1851.204712,1371.800781 1858.059814,1383.888306 1864.999268,1395.927368 
	C1873.470093,1410.622803 1882.025513,1425.269653 1890.479248,1439.974854 
	C1898.692261,1454.261719 1906.785645,1468.617188 1914.999146,1482.903809 
	C1925.708740,1501.532471 1936.509888,1520.108521 1947.224365,1538.734497 
	C1955.523071,1553.160889 1963.782837,1567.609741 1971.994263,1582.085938 
	C1976.845947,1590.639282 1982.111206,1598.958862 1986.040527,1608.029175 
	C1991.726929,1621.155273 1994.739990,1634.737915 1995.103882,1649.104980 
	C1995.606689,1668.962280 1991.358643,1687.524292 1982.007812,1704.990601 
	C1972.454468,1722.835449 1958.906982,1736.771973 1941.527100,1747.151123 
	C1926.784790,1755.954712 1910.956543,1760.751343 1893.851440,1762.209595 
	C1888.909912,1762.630859 1883.990845,1762.967285 1879.062500,1762.967651 
	C1294.435547,1763.002563 709.808533,1763.032959 125.181534,1762.905884 
	C95.830643,1762.899536 69.906250,1753.269043 48.087399,1732.790894 
	C30.782528,1716.549438 20.038055,1696.831421 15.210158,1674.046265 
	C10.829574,1653.372559 12.948403,1632.836670 20.498354,1612.984253 
	C25.582457,1599.615601 33.470081,1587.710449 40.350082,1575.289917 
	C47.393444,1562.574585 54.839676,1550.082153 62.126575,1537.502075 
	C76.059769,1513.447510 90.061089,1489.432251 103.928619,1465.339844 
	C116.016617,1444.339233 127.892670,1423.216675 139.984421,1402.218262 
	C153.208099,1379.254150 166.637115,1356.408447 179.854294,1333.440552 
	C190.892838,1314.258789 201.682831,1294.934082 212.714539,1275.748291 
	C224.635773,1255.015381 236.773300,1234.406982 248.697372,1213.675659 
	C258.363159,1196.870605 267.853485,1179.964355 277.419495,1163.101929 
	C279.966217,1158.612671 282.504883,1154.118896 285.265808,1149.319336 
z"/>
<path fill="#000000" opacity="1.000000" stroke="none" 
	d="
M1460.000000,1729.179932 
	C1015.199951,1729.179932 570.899841,1729.138916 126.599854,1729.320312 
	C107.641991,1729.328003 90.929825,1724.356812 76.138489,1712.775635 
	C61.202656,1701.081055 51.787003,1685.727051 48.145313,1667.220093 
	C44.268307,1647.517212 48.121471,1629.082520 58.248924,1611.614258 
	C90.869881,1555.348633 123.188446,1498.907471 155.613007,1442.527954 
	C246.322433,1284.803345 337.029846,1127.077759 427.731873,969.348877 
	C526.037048,798.398254 624.334717,627.443298 722.636719,456.490845 
	C793.741638,332.835632 864.917175,209.220917 935.887756,85.488625 
	C948.060120,64.267105 965.569885,50.564617 989.354309,45.389153 
	C1001.739258,42.694221 1014.101990,44.096981 1026.392334,47.662479 
	C1047.059326,53.658115 1061.738403,66.557663 1072.277466,84.894714 
	C1140.161255,203.007050 1208.093018,321.091766 1276.004028,439.188477 
	C1366.444092,596.463013 1456.872314,753.744385 1547.318604,911.015320 
	C1645.795776,1082.250488 1744.291382,1253.474731 1842.771118,1424.708252 
	C1878.723511,1487.221191 1914.617798,1549.767456 1950.625610,1612.248413 
	C1957.589233,1624.331909 1961.740723,1637.351196 1961.738159,1651.119995 
	C1961.731079,1690.167480 1936.062866,1720.649902 1898.766724,1728.053955 
	C1893.172363,1729.164551 1887.578857,1729.161621 1881.963379,1729.162476 
	C1741.475586,1729.184814 1600.987793,1729.179932 1460.000000,1729.179932 
z"/>
<path fill="#FFEE33" opacity="1.000000" stroke="none" 
	d="
M1386.723755,940.277527 
	C1508.426514,1151.927002 1629.939575,1363.261475 1751.789795,1575.182251 
	C1253.133179,1575.182251 755.392822,1575.182251 256.773865,1575.182251 
	C506.009979,1141.764282 755.009888,708.757080 1004.290771,275.261230 
	C1131.970093,497.288971 1259.252075,718.625793 1386.723755,940.277527 
z"/>
<path fill="#000000" opacity="1.000000" stroke="none" 
	d="
M333.000000,1552.035278 
	C320.697144,1552.035278 308.894287,1552.035278 296.701782,1552.035278 
	C319.956268,1510.971069 343.000153,1470.302002 366.022339,1429.620605 
	C483.008148,1222.900635 600.000793,1016.184570 716.878723,809.403625 
	C719.171631,805.347046 720.427734,804.980957 724.144409,807.934509 
	C798.084656,866.693237 872.138000,925.309631 946.164612,983.959595 
	C947.063660,984.671814 947.914978,985.444214 948.851624,986.242249 
	C947.571228,987.671387 945.986450,986.955994 944.631470,986.960205 
	C925.799866,987.018738 906.965454,987.166199 888.137878,986.884338 
	C883.357727,986.812805 881.844482,987.667297 881.855591,992.928955 
	C882.054077,1087.087646 881.999817,1181.246826 881.999817,1275.405884 
	C881.999817,1339.734009 882.058533,1404.062378 881.879211,1468.390015 
	C881.866028,1473.125488 883.280212,1473.980103 887.655029,1473.970215 
	C949.316345,1473.830200 1010.978333,1473.826904 1072.639648,1473.978760 
	C1076.953003,1473.989380 1078.126343,1473.088135 1078.116089,1468.595337 
	C1077.951782,1396.434814 1077.964844,1324.273804 1078.094238,1252.113159 
	C1078.101440,1248.096680 1077.352051,1246.861938 1073.047363,1246.885864 
	C1037.051392,1247.086304 1001.053772,1246.999878 965.056702,1246.999878 
	C963.258545,1246.999878 961.460388,1246.999878 959.024841,1246.999878 
	C971.843018,1217.463989 984.440430,1188.436890 997.224121,1158.980469 
	C984.286133,1158.980469 971.987732,1158.980469 959.047668,1158.980469 
	C968.050049,1138.206177 976.866699,1117.860474 985.871521,1097.080566 
	C976.782959,1097.080566 968.322693,1097.080566 958.969360,1097.080566 
	C1008.827332,982.352783 1058.452637,868.160278 1108.498169,753.000916 
	C1158.491577,868.033569 1208.112183,982.208557 1257.989624,1096.974609 
	C1248.826416,1096.974609 1240.280762,1096.974609 1231.074829,1096.974609 
	C1240.106323,1117.797852 1248.876709,1138.019165 1257.895996,1158.814331 
	C1245.087646,1158.814331 1232.739624,1158.814331 1219.696289,1158.814331 
	C1232.530640,1188.374390 1245.080078,1217.278564 1257.876709,1246.751831 
	C1255.791870,1246.845703 1254.078979,1246.989746 1252.366089,1246.990234 
	C1211.202759,1247.002686 1170.038940,1247.083130 1128.876587,1246.879761 
	C1124.434082,1246.857788 1123.908203,1248.303345 1123.914429,1252.189209 
	C1124.030884,1324.349976 1124.055176,1396.510864 1123.871704,1468.671265 
	C1123.859863,1473.341309 1125.297119,1473.964722 1129.436157,1473.962280 
	C1305.755249,1473.860840 1482.074463,1473.895996 1658.393433,1473.755615 
	C1662.887207,1473.751953 1665.067505,1475.173462 1667.139404,1479.016479 
	C1680.151733,1503.151855 1693.442993,1527.136963 1707.116211,1552.035278 
	C1248.803833,1552.035278 791.151917,1552.035278 333.000000,1552.035278 
z"/>
<path fill="#FFEE33" opacity="1.000000" stroke="none" 
	d="
M719.999756,1370.000000 
	C719.999756,1408.140625 719.945068,1445.781372 720.086914,1483.421387 
	C720.100647,1487.064697 719.349976,1488.139526 715.516541,1488.101929 
	C693.367249,1487.884399 671.214600,1487.915649 649.064087,1488.047241 
	C645.835510,1488.066406 644.918335,1487.250488 644.925659,1483.952026 
	C645.034180,1434.986206 645.031616,1386.019897 644.929199,1337.054077 
	C644.922485,1333.835205 645.701782,1332.898438 649.008057,1332.920898 
	C671.324890,1333.072876 693.643616,1333.068481 715.960571,1332.924561 
	C719.209106,1332.903687 720.143982,1333.739014 720.079590,1337.024170 
	C719.867432,1347.845825 719.999756,1358.674194 719.999756,1370.000000 
z"/>
<path fill="#FFEE33" opacity="1.000000" stroke="none" 
	d="
M560.000244,1422.000000 
	C560.000244,1393.516846 560.076843,1365.533203 559.907898,1337.551147 
	C559.885620,1333.851562 560.732422,1332.860596 564.512024,1332.901001 
	C584.331177,1333.113281 604.154358,1333.078735 623.974548,1332.922485 
	C627.250305,1332.896729 628.079773,1333.787109 628.072754,1337.037354 
	C627.967285,1386.007690 627.968323,1434.978394 628.071228,1483.948730 
	C628.078003,1487.173584 627.289734,1488.105469 623.988464,1488.079102 
	C604.001709,1487.919678 584.012512,1487.921997 564.025757,1488.077515 
	C560.750488,1488.102905 559.900085,1487.215942 559.924072,1483.962402 
	C560.074585,1463.475830 560.000244,1442.987671 560.000244,1422.000000 
z"/>
<path fill="#FFEE33" opacity="1.000000" stroke="none" 
	d="
M710.958740,1317.999878 
	C689.981567,1317.999756 669.499207,1317.922729 649.018677,1318.078003 
	C645.733337,1318.102783 644.902283,1317.199097 644.925049,1313.957642 
	C645.072144,1292.977295 645.076233,1271.994873 644.921631,1251.014771 
	C644.897339,1247.722412 645.812195,1246.905151 649.046204,1246.925659 
	C671.358765,1247.067627 693.673096,1247.072266 715.985535,1246.921997 
	C719.278015,1246.899902 720.098389,1247.812500 720.074707,1251.046509 
	C719.926453,1271.360718 719.801758,1291.679810 720.139099,1311.989380 
	C720.223267,1317.060059 718.916504,1318.940796 713.947998,1318.020874 
	C713.143005,1317.871826 712.286682,1317.999878 710.958740,1317.999878 
z"/>
<path fill="#FFEE33" opacity="1.000000" stroke="none" 
	d="
M560.410095,1309.225342 
	C560.119690,1289.311523 560.099792,1269.657471 559.950623,1250.004272 
	C559.932129,1247.567627 560.703796,1246.944092 563.060242,1246.953369 
	C583.717407,1247.035278 604.375122,1247.041504 625.032166,1246.947632 
	C627.519531,1246.936279 628.051941,1247.790039 628.043884,1250.096558 
	C627.968567,1271.753296 627.957947,1293.410645 628.054077,1315.067261 
	C628.065369,1317.605835 627.127258,1318.049194 624.868347,1318.041382 
	C604.211121,1317.969727 583.553406,1317.955322 562.896362,1318.055176 
	C560.368958,1318.067383 559.634705,1317.189575 560.098022,1314.470337 
	C561.061462,1312.857300 562.275696,1312.078369 563.819763,1311.545410 
	C562.630310,1310.590210 561.362305,1310.464355 560.410095,1309.225342 
z"/>
<path fill="#D9CA2B" opacity="1.000000" stroke="none" 
	d="
M560.113159,1309.384155 
	C560.343018,1308.968384 560.507141,1308.966675 560.670715,1308.975342 
	C563.391968,1309.120239 567.916565,1309.182251 567.879822,1311.205566 
	C567.828491,1314.038696 563.470642,1313.245728 560.560974,1314.015503 
	C560.128479,1312.623169 560.087830,1311.213135 560.113159,1309.384155 
z"/>
</svg>